{"title":"Nymphomaniac.Vol.II.2013.Directors.Cut.BRRip.x264.HORiZON-ArtSub","uid":11415231,"size":2145708546,"categoryP":"video","categoryS":"movies","magnet":"?xt=urn:btih:68f94820dd633821c6a0cbf92727a5313112ea7b&amp;dn=Nymphomaniac.Vol.II.2013.Directors.Cut.BRRip.x264.HORiZON-ArtSub&amp;tr=udp%3A%2F%2Ftracker.openbittorrent.com%3A80&amp;tr=udp%3A%2F%2Fopen.demonii.com%3A1337&amp;tr=udp%3A%2F%2Ftracker.coppersurfer.tk%3A6969&amp;tr=udp%3A%2F%2Fexodus.desync.com%3A6969","seeders":4,"leechers":1,"uploader":"lletaif","files":3,"time":1415568185,"description":"Title:\nNymphomaniac: Vol. II\n\n\nCountry:\nUK, Dennmark, France, 2013\n\n\nLanguage:\nEnglish\nIMDB: &lt;a href=&quot;\nhttp://www.imdb.com/title/tt2382009/?ref_=fn_al_tt_2&quot; rel=&quot;nofollow&quot; target=&quot;_NEW&quot;&gt;\nhttp://www.imdb.com/title/tt2382009/?ref_=fn_al_tt_2&lt;/a&gt;\n\n\nPlot:\nThe continuation of Joe's sexually dictated life delves into the darker aspects of her adulthood, obsessions and what led to her being in Seligman's care.\n\n\n\nMedia Info:\n\nGeneral\nUnique ID                                : 234273319604616693327588186843762064300 (0xB03F666F8F12104A8BB80D9E6BDAFBAC)\nComplete name                            : Nymphomaniac.Vol.II.2013.Directors.Cut.BRRip.x264.HORiZON-ArtSubs.mkv\nFormat                                   : Matroska\nFormat version                           : Version 2\nFile size                                : 1.99 GiB\nDuration                                 : 2h 58mn\nOverall bit rate                         : 1 596 Kbps\nMovie name                               : NYMPH()MANIAC_DIRECTOR'S_CUT!.Title0\nEncoded date                             : UTC 2014-11-09 18:31:38\nWriting application                      : DVDFab 9.1.4.0\nWriting library                          : libebml v0.7.8 + libmatroska v0.8.1\n\nVideo\nID                                       : 1\nFormat                                   : AVC\nFormat/Info                              : Advanced Video Codec\nFormat profile                           : &lt;a class=&quot;__cf_email__&quot; href=&quot;/cdn-cgi/l/email-protection&quot; data-cfemail=&quot;6a22030d022a265e445b&quot;&gt;[email&amp;#160;protected]&lt;/a&gt;&lt;script cf-hash='f9e31' type=&quot;text/javascript&quot;&gt;\n/* &lt;![CDATA[ */!function(){try{var t=&quot;currentScript&quot;in document?document.currentScript:function(){for(var t=document.getElementsByTagName(&quot;script&quot;),e=t.length;e--;)if(t[e].getAttribute(&quot;cf-hash&quot;))return t[e]}();if(t&amp;&amp;t.previousSibling){var e,r,n,i,c=t.previousSibling,a=c.getAttribute(&quot;data-cfemail&quot;);if(a){for(e=&quot;&quot;,r=parseInt(a.substr(0,2),16),n=2;a.length-n;n+=2)i=parseInt(a.substr(n,2),16)^r,e+=String.fromCharCode(i);e=document.createTextNode(e),c.parentNode.replaceChild(e,c)}}}catch(u){}}();/* ]]&gt; */&lt;/script&gt;\nFormat settings, CABAC                   : Yes\nFormat settings, ReFrames                : 2 frames\nCodec ID                                 : V_MPEG4/ISO/AVC\nDuration                                 : 2h 58mn\nBit rate                                 : 1 116 Kbps\nWidth                                    : 960 pixels\nHeight                                   : 408 pixels\nDisplay aspect ratio                     : 2.35:1\nFrame rate mode                          : Constant\nFrame rate                               : 24.000 fps\nColor space                              : YUV\nChroma subsampling                       : 4:2:0\nBit depth                                : 8 bits\nScan type                                : Progressive\nBits/(Pixel*Frame)                       : 0.119\nStream size                              : 1.39 GiB (70%)\nWriting library                          : x264 core\nDefault                                  : Yes\nForced                                   : No\nColor primaries                          : BT.601 NTSC\nTransfer characteristics                 : BT.709\nMatrix coefficients                      : BT.601\n\nAudio\nID                                       : 2\nFormat                                   : AC-3\nFormat/Info                              : Audio Coding 3\nMode extension                           : CM (complete main)\nFormat settings, Endianness              : Big\nCodec ID                                 : A_AC3\nDuration                                 : 2h 58mn\nBit rate mode                            : Constant\nBit rate                                 : 448 Kbps\nChannel(s)                               : 6 channels\nChannel positions                        : Front: L C R, Side: L R, LFE\nSampling rate                            : 48.0 KHz\nBit depth                                : 16 bits\nCompression mode                         : Lossy\nStream size                              : 571 MiB (28%)\nLanguage                                 : English\nDefault                                  : Yes\nForced                                   : No\n\nMenu\n00:00:00.000                             : en:(01)00:00:00:000\n00:09:10.791                             : en:(02)00:09:10:791\n00:30:05.708                             : en:(03)00:30:05:708\n00:39:09.750                             : en:(04)00:39:09:750\n00:49:13.291                             : en:(05)00:49:13:291\n01:10:42.458                             : en:(06)01:10:42:458\n01:28:08.375                             : en:(07)01:28:08:375\n01:59:55.041                             : en:(08)01:59:55:041\n02:10:16.291                             : en:(09)02:10:16:291\n02:24:12.083                             : en:(10)02:24:12:083\n02:43:50.000                             : en:(11)02:43:50:000\n02:53:34.166                             : en:(12)02:53:34:166\n02:58:11.000                             : en:(13)02:58:11:000","torrent":{"xt":"urn:btih:68f94820dd633821c6a0cbf92727a5313112ea7b","amp;dn":"Nymphomaniac.Vol.II.2013.Directors.Cut.BRRip.x264.HORiZON-ArtSub","amp;tr":["udp%3A%2F%2Ftracker.openbittorrent.com%3A80","udp%3A%2F%2Fopen.demonii.com%3A1337","udp%3A%2F%2Ftracker.coppersurfer.tk%3A6969","udp%3A%2F%2Fexodus.desync.com%3A6969"],"infoHash":"68f94820dd633821c6a0cbf92727a5313112ea7b","infoHashBuffer":{"type":"Buffer","data":[104,249,72,32,221,99,56,33,198,160,203,249,39,39,165,49,49,18,234,123]},"announce":[],"urlList":[]}}